# xmcd
#
# Track frame offsets: 
#        150
#        16068
#        28084
#        39159
#        51967
#        64898
#        77259
#        89978
#        102528
#        116310
#        130480
#        142244
#        153389
#        165130
#        176734
#        187612
#        199829
#        213098
#        228050
#        243431
#        256497
#        267139
#        277377
#        289998
#        302728
#        316904
#        329771
#
# Disc length: 4545 seconds
#
# Revision: 2
# Processed by: cddbd v1.5.2PL0 Copyright (c) Steve Scherf et al.
# Submitted via: ExactAudioCopy v0.95a4
#
DISCID=8411bf1b
DTITLE=Various Artist - Down Home Blues Chicago Fine Boogie [CD1]
DYEAR=2017
DGENRE=Blues
TTITLE0=James McCain - I Got To Check Up On My Baby
TTITLE1=James McCain - Good Morning Mr. Roosevelt
TTITLE2='Bluesboy' Bill - Come On Babe
TTITLE3=Johnny Shines - Tennessee Woman Blues
TTITLE4=Muddy Waters - Jitterbug Blues
TTITLE5=Muddy Waters - Burying Ground Blues
TTITLE6=Muddy Waters - Hard Day Blues
TTITLE7=John Sellers - Let Me Be Your Sidetrack
TTITLE8=Willie 'Long Time' Smith - My Buddy Doctor Clayton
TTITLE9=Willie 'Long Time' Smith - I Love You Baby Boogie
TTITLE10=Little Walter with Othum Brown - Ora Nelle Blues [Alternate]
TTITLE11=Little Walter - I Just Keep Loving Her [Alternate]
TTITLE12=Jimmy Rogers - Little Store Blues [Alternate]
TTITLE13=Johnny Young - Money Taking Woman
TTITLE14=Johnny Temple - Old's '98' Blues
TTITLE15=Muddy Waters - I Can't Be Satisfied
TTITLE16=St. Louis Jimmy - Flordia Hurricane
TTITLE17=Delta Joe (Sunnyland Slim) - Train Time
TTITLE18=Delta Joe (Sunnyland Slim) - Roll Tumble And Slip
TTITLE19=Floyd Jones - Stockyard Blues
TTITLE20=Floyd Jones - Keep What You Got
TTITLE21=Little Walter - Blue Baby
TTITLE22=Little Walter - I Want My Baby
TTITLE23=Robert Nighthawk and Ethel Mae Brown - Down The Line
TTITLE24=The Nighthawks - She Knows How To Love A Man
TTITLE25=Big Maceo - One Sunday Morning
TTITLE26=Big Maceo - Just Tell Me Baby
EXTD=
EXTT0=
EXTT1=
EXTT2=
EXTT3=
EXTT4=
EXTT5=
EXTT6=
EXTT7=
EXTT8=
EXTT9=
EXTT10=
EXTT11=
EXTT12=
EXTT13=
EXTT14=
EXTT15=
EXTT16=
EXTT17=
EXTT18=
EXTT19=
EXTT20=
EXTT21=
EXTT22=
EXTT23=
EXTT24=
EXTT25=
EXTT26=
PLAYORDER=
